<svg width="330" height="148" viewBox="0 0 330 148" fill="none" xmlns="http://www.w3.org/2000/svg">
<g clip-path="url(#clip0_7090_1249)">
<rect y="113" width="44" height="131" rx="12" fill="url(#paint0_linear_7090_1249)"/>
<path d="M-4 93.5L48.5 116" stroke="#F8F8F8"/>
<path d="M-4 101L48.5 123.5" stroke="#F8F8F8"/>
<path d="M-4 108.5L48.5 131" stroke="#F8F8F8"/>
<path d="M-4 116L48.5 138.5" stroke="#F8F8F8"/>
<path d="M-4 123.5L48.5 146" stroke="#F8F8F8"/>
<path d="M-4 131L48.5 153.5" stroke="#F8F8F8"/>
<path d="M-4 138.5L48.5 161" stroke="#F8F8F8"/>
<path d="M-4 146L48.5 168.5" stroke="#F8F8F8"/>
</g>
<g clip-path="url(#clip1_7090_1249)">
<rect x="57.2" y="91" width="44" height="131" rx="12" fill="url(#paint1_linear_7090_1249)"/>
<path d="M53.2 75L105.7 97.5" stroke="#F8F8F8"/>
<path d="M53.2 82.5L105.7 105" stroke="#F8F8F8"/>
<path d="M53.2 90L105.7 112.5" stroke="#F8F8F8"/>
<path d="M53.2 97.5L105.7 120" stroke="#F8F8F8"/>
<path d="M53.2 105L105.7 127.5" stroke="#F8F8F8"/>
<path d="M53.2 112.5L105.7 135" stroke="#F8F8F8"/>
<path d="M53.2 120L105.7 142.5" stroke="#F8F8F8"/>
<path d="M53.2 127.5L105.7 150" stroke="#F8F8F8"/>
<path d="M53.2 135L105.7 157.5" stroke="#F8F8F8"/>
<path d="M53.2 142.5L105.7 165" stroke="#F8F8F8"/>
</g>
<g clip-path="url(#clip2_7090_1249)">
<rect x="114.4" y="69" width="44" height="131" rx="12" fill="url(#paint2_linear_7090_1249)"/>
<path d="M110.4 49L162.9 71.5" stroke="#F8F8F8"/>
<path d="M110.4 56.5L162.9 79" stroke="#F8F8F8"/>
<path d="M110.4 64L162.9 86.5" stroke="#F8F8F8"/>
<path d="M110.4 71.5L162.9 94" stroke="#F8F8F8"/>
<path d="M110.4 79L162.9 101.5" stroke="#F8F8F8"/>
<path d="M110.4 86.5L162.9 109" stroke="#F8F8F8"/>
<path d="M110.4 94L162.9 116.5" stroke="#F8F8F8"/>
<path d="M110.4 101.5L162.9 124" stroke="#F8F8F8"/>
<path d="M110.4 109L162.9 131.5" stroke="#F8F8F8"/>
<path d="M110.4 116.5L162.9 139" stroke="#F8F8F8"/>
<path d="M110.4 124L162.9 146.5" stroke="#F8F8F8"/>
<path d="M110.4 131.5L162.9 154" stroke="#F8F8F8"/>
<path d="M110.4 139L162.9 161.5" stroke="#F8F8F8"/>
<path d="M110.4 146.5L162.9 169" stroke="#F8F8F8"/>
</g>
<g clip-path="url(#clip3_7090_1249)">
<rect x="171.6" y="47" width="44" height="131" rx="12" fill="url(#paint3_linear_7090_1249)"/>
<path d="M167.6 30.5L220.1 53" stroke="#F8F8F8"/>
<path d="M167.6 38L220.1 60.5" stroke="#F8F8F8"/>
<path d="M167.6 45.5L220.1 68" stroke="#F8F8F8"/>
<path d="M167.6 53L220.1 75.5" stroke="#F8F8F8"/>
<path d="M167.6 60.5L220.1 83" stroke="#F8F8F8"/>
<path d="M167.6 68L220.1 90.5" stroke="#F8F8F8"/>
<path d="M167.6 75.5L220.1 98" stroke="#F8F8F8"/>
<path d="M167.6 83L220.1 105.5" stroke="#F8F8F8"/>
<path d="M167.6 90.5L220.1 113" stroke="#F8F8F8"/>
<path d="M167.6 98L220.1 120.5" stroke="#F8F8F8"/>
<path d="M167.6 105.5L220.1 128" stroke="#F8F8F8"/>
<path d="M167.6 113L220.1 135.5" stroke="#F8F8F8"/>
<path d="M167.6 120.5L220.1 143" stroke="#F8F8F8"/>
<path d="M167.6 128L220.1 150.5" stroke="#F8F8F8"/>
<path d="M167.6 135.5L220.1 158" stroke="#F8F8F8"/>
<path d="M167.6 143L220.1 165.5" stroke="#F8F8F8"/>
</g>
<g clip-path="url(#clip4_7090_1249)">
<rect x="228.8" y="17" width="44" height="131" rx="12" fill="url(#paint4_linear_7090_1249)"/>
<path d="M224.8 8L277.3 30.5" stroke="#F8F8F8"/>
<path d="M224.8 15.5L277.3 38" stroke="#F8F8F8"/>
<path d="M224.8 23L277.3 45.5" stroke="#F8F8F8"/>
<path d="M224.8 30.5L277.3 53" stroke="#F8F8F8"/>
<path d="M224.8 38L277.3 60.5" stroke="#F8F8F8"/>
<path d="M224.8 45.5L277.3 68" stroke="#F8F8F8"/>
<path d="M224.8 53L277.3 75.5" stroke="#F8F8F8"/>
<path d="M224.8 60.5L277.3 83" stroke="#F8F8F8"/>
<path d="M224.8 68L277.3 90.5" stroke="#F8F8F8"/>
<path d="M224.8 75.5L277.3 98" stroke="#F8F8F8"/>
<path d="M224.8 83L277.3 105.5" stroke="#F8F8F8"/>
<path d="M224.8 90.5L277.3 113" stroke="#F8F8F8"/>
<path d="M224.8 98L277.3 120.5" stroke="#F8F8F8"/>
<path d="M224.8 105.5L277.3 128" stroke="#F8F8F8"/>
<path d="M224.8 113L277.3 135.5" stroke="#F8F8F8"/>
<path d="M224.8 120.5L277.3 143" stroke="#F8F8F8"/>
<path d="M224.8 128L277.3 150.5" stroke="#F8F8F8"/>
<path d="M224.8 135.5L277.3 158" stroke="#F8F8F8"/>
</g>
<g clip-path="url(#clip5_7090_1249)">
<rect x="286" width="44" height="148" rx="12" fill="url(#paint5_linear_7090_1249)"/>
<path d="M282 -8L334.5 14.5" stroke="#F8F8F8"/>
<path d="M282 -0.5L334.5 22" stroke="#F8F8F8"/>
<path d="M282 7L334.5 29.5" stroke="#F8F8F8"/>
<path d="M282 14.5L334.5 37" stroke="#F8F8F8"/>
<path d="M282 22L334.5 44.5" stroke="#F8F8F8"/>
<path d="M282 29.5L334.5 52" stroke="#F8F8F8"/>
<path d="M282 37L334.5 59.5" stroke="#F8F8F8"/>
<path d="M282 44.5L334.5 67" stroke="#F8F8F8"/>
<path d="M282 52L334.5 74.5" stroke="#F8F8F8"/>
<path d="M282 59.5L334.5 82" stroke="#F8F8F8"/>
<path d="M282 67L334.5 89.5" stroke="#F8F8F8"/>
<path d="M282 74.5L334.5 97" stroke="#F8F8F8"/>
<path d="M282 82L334.5 104.5" stroke="#F8F8F8"/>
<path d="M282 89.5L334.5 112" stroke="#F8F8F8"/>
<path d="M282 97L334.5 119.5" stroke="#F8F8F8"/>
<path d="M282 104.5L334.5 127" stroke="#F8F8F8"/>
<path d="M282 112L334.5 134.5" stroke="#F8F8F8"/>
<path d="M282 119.5L334.5 142" stroke="#F8F8F8"/>
<path d="M282 127L334.5 149.5" stroke="#F8F8F8"/>
<path d="M282 134.5L334.5 157" stroke="#F8F8F8"/>
</g>
<defs>
<linearGradient id="paint0_linear_7090_1249" x1="2.96799e-07" y1="178.5" x2="53.3474" y2="178.944" gradientUnits="userSpaceOnUse">
<stop stop-color="#3445E7"/>
<stop offset="0.461538" stop-color="#2F85EA"/>
<stop offset="1" stop-color="#07D6F3"/>
</linearGradient>
<linearGradient id="paint1_linear_7090_1249" x1="57.2" y1="156.5" x2="110.547" y2="156.944" gradientUnits="userSpaceOnUse">
<stop stop-color="#3445E7"/>
<stop offset="0.461538" stop-color="#2F85EA"/>
<stop offset="1" stop-color="#07D6F3"/>
</linearGradient>
<linearGradient id="paint2_linear_7090_1249" x1="114.4" y1="134.5" x2="167.747" y2="134.944" gradientUnits="userSpaceOnUse">
<stop stop-color="#3445E7"/>
<stop offset="0.461538" stop-color="#2F85EA"/>
<stop offset="1" stop-color="#07D6F3"/>
</linearGradient>
<linearGradient id="paint3_linear_7090_1249" x1="171.6" y1="112.5" x2="224.947" y2="112.944" gradientUnits="userSpaceOnUse">
<stop stop-color="#3445E7"/>
<stop offset="0.461538" stop-color="#2F85EA"/>
<stop offset="1" stop-color="#07D6F3"/>
</linearGradient>
<linearGradient id="paint4_linear_7090_1249" x1="228.8" y1="82.5" x2="282.147" y2="82.9443" gradientUnits="userSpaceOnUse">
<stop stop-color="#3445E7"/>
<stop offset="0.461538" stop-color="#2F85EA"/>
<stop offset="1" stop-color="#07D6F3"/>
</linearGradient>
<linearGradient id="paint5_linear_7090_1249" x1="286" y1="74" x2="339.348" y2="74.3932" gradientUnits="userSpaceOnUse">
<stop stop-color="#3445E7"/>
<stop offset="0.461538" stop-color="#2F85EA"/>
<stop offset="1" stop-color="#07D6F3"/>
</linearGradient>
<clipPath id="clip0_7090_1249">
<rect y="113" width="44" height="35" rx="12" fill="white"/>
</clipPath>
<clipPath id="clip1_7090_1249">
<rect x="57.2" y="91" width="44" height="57" rx="12" fill="white"/>
</clipPath>
<clipPath id="clip2_7090_1249">
<rect x="114.4" y="69" width="44" height="79" rx="12" fill="white"/>
</clipPath>
<clipPath id="clip3_7090_1249">
<rect x="171.6" y="47" width="44" height="101" rx="12" fill="white"/>
</clipPath>
<clipPath id="clip4_7090_1249">
<rect x="228.8" y="17" width="44" height="131" rx="12" fill="white"/>
</clipPath>
<clipPath id="clip5_7090_1249">
<rect x="286" width="44" height="148" rx="12" fill="white"/>
</clipPath>
</defs>
</svg>
